<svg version="1.1" id="Ebene_1" xmlns="http://www.w3.org/2000/svg" x="0" y="0" viewBox="0 0 1028 228" style="enable-background:new 0 0 1028 228" xml:space="preserve"><style>.st4{fill-rule:evenodd;clip-rule:evenodd;fill:#ff5600}.st5{fill:none;stroke:#b2b2b2;stroke-width:4;stroke-miterlimit:10}</style><path d="m693.47 82.22 39.22-22.64c.98-.57 2.19-.57 3.17 0l39.22 22.64a3.18 3.18 0 0 1 1.59 2.75v45.28c0 1.13-.61 2.18-1.59 2.75l-39.22 22.64c-.98.57-2.19.57-3.17 0L693.47 133a3.18 3.18 0 0 1-1.59-2.75V84.97c.01-1.13.61-2.18 1.59-2.75" style="fill:#8080f2" transform="matrix(1.2549 0 0 1.2549 -22.987 -19.95)"/><path d="m836.23 102.85-46.86-81.51c-1.7-2.95-4.85-5.12-8.25-5.12h-93.71c-3.4 0-6.55 2.17-8.25 5.12l-46.86 81.34a9.71 9.71 0 0 0 0 9.62l46.86 80.85c1.7 2.95 4.85 4.45 8.25 4.45h93.71c3.4 0 6.55-1.46 8.25-4.41l46.86-80.98c1.71-2.96 1.71-6.41 0-9.36m-38.79 39.2c0 1.2-.72 2.31-1.76 2.91L736 179.39c-1.04.6-2.34.6-3.38 0l-59.73-34.43c-1.04-.6-1.76-1.71-1.76-2.91V73.18c0-1.2.72-2.31 1.75-2.91l59.68-34.43c1.04-.6 2.34-.6 3.37 0l59.73 34.43c1.04.6 1.77 1.71 1.77 2.91v68.87z" style="fill:#4b32c3" transform="matrix(1.2549 0 0 1.2549 -22.987 -19.95)"/><path d="m285.5-1.32-22.67-39.26-22.67 39.26h-75.49l98.16-170.02L360.99-1.32H285.5z" style="fill:#41b883" transform="matrix(1.3333 0 0 -1.3333 161.096 .001)"/><path d="m285.5-1.32-22.67-39.26-22.67 39.26h-36.23l58.9-102.01 58.9 102.01H285.5z" style="fill:#34495e" transform="matrix(1.3333 0 0 -1.3333 161.096 .001)"/><g id="Layer_1"><path class="st4" d="m248.69 26.36-2.45-1.68-2.84-1.29-3.22-.9-3.61-.64-3.87-.26c-10.57.13-18.3 1.8-28.48 4.64l-5.28 1.68-2.32.77c-.64.26-1.42.52-2.06.77l-.9.26-.39.13c-1.42.52-2.84 1.03-4.12 1.68l-.77.26-.64.26c-1.42.64-2.84 1.16-4.25 1.8l-.39.13-.77.39c-1.16.52-2.32 1.03-3.35 1.68l-1.03.52-.39.26c-1.29.64-2.71 1.29-4 2.06l-.64.39-.64.39c-1.42.77-2.71 1.55-4 2.32l-.26.13-.64.39c-1.16.64-2.19 1.29-3.22 1.93l-.9.52-.52.26c-1.16.77-2.45 1.55-3.61 2.32l-.52.39-.64.52c-1.29.9-2.45 1.8-3.61 2.58-1.16.9-2.45 1.8-3.48 2.84l-.52.39-.26.26c-1.03.9-2.19 1.8-3.09 2.71l-.26.26-.39.39c-.9.9-1.8 1.68-2.58 2.58l-.39.39-.13.13c-.9 1.03-1.8 1.93-2.58 2.96l-.26.39-.26.26c-.77 1.03-1.55 1.93-2.19 2.96l-.13.13-.26.39c-.64.9-1.16 1.8-1.68 2.71l-.26.39-.13.13c-.52.9-.9 1.93-1.42 2.84l-.13.39-.13.39c-.39 1.03-.64 1.93-.9 2.96l-.9 3.74.52-1.55c-.26 2.58-.13 5.16.77 7.6 9.15 26.55 69.73 15.85 49.11 64.96-13.02 30.93-45.88 58.77-80.94 72.69 7.22 1.42 14.69 2.19 22.3 2.19 62.25 0 112.65-50.4 112.65-112.65 0-18.82-4.64-36.6-12.89-52.2 15.09-13.61 27.59-32.04 25.14-36.29zm-47.3 6.57c14.18-4.64 35.19-9.28 41.5-2.96 4.38 4.38-7.73 20.11-19.59 31.71-5.67-10.83-13.15-20.5-21.91-28.75zM102.53 172.65l.52-.52c.9-.9 1.8-1.68 2.58-2.58l.26-.26.26-.26c.77-.9 1.55-1.8 2.32-2.71l.39-.52.26-.39c.77-.9 1.42-1.93 2.06-2.84l.13-.26.26-.39c.52-.9 1.16-1.68 1.55-2.58l.26-.39v-.13c.52-.9.9-1.93 1.29-2.84l.26-.39.13-.39c.39-.9.64-1.93.9-2.84v-.13l.9-3.74-.52 1.55c.26-2.58.13-5.03-.64-7.48-8.89-26.81-69.86-15.98-49.11-65.22 11.47-27.45 45.11-58 81.72-72.95C140.42 2.9 132.3 2 123.93 2 61.67 2 11.28 52.4 11.28 114.65c0 32.35 13.66 61.48 35.44 82.1-13.53 3.74-32.22 7.6-38.41 1.42-4.25-4.25 5.41-17.92 16.76-29.13l-.39-.77C10.12 181.54-2 199.46.58 203.71l2.45 1.68 2.84 1.29 3.22.9 3.61.64 3.87.26c10.57-.13 18.3-1.8 28.48-4.64l5.28-1.68 2.06-.77c.77-.26 1.68-.64 2.45-.9l.77-.26.77-.39c1.29-.52 2.58-1.03 3.74-1.55l.64-.26.39-.13c1.55-.64 2.96-1.29 4.51-1.93l.39-.13.64-.26c1.42-.64 2.71-1.29 4-1.93l.52-.26.13-.13c1.42-.64 2.71-1.42 4.12-2.06l.9-.39.77-.39c1.29-.77 2.58-1.42 3.87-2.19l.39-.13.77-.52c1.03-.64 1.93-1.16 2.96-1.8l1.03-.64.52-.26c1.16-.77 2.45-1.55 3.61-2.32l.52-.39.52-.39c1.16-.77 2.19-1.55 3.22-2.32l.52-.39.77-.64c.9-.64 1.68-1.42 2.58-2.06l.64-.52.39-.26c1.03-.9 2.06-1.8 2.96-2.58l.13-.36z"/></g><g><path class="st5" d="m314 130 30-30M314 100l30 30"/></g><g><path class="st5" d="m653.48 127.74 30-30M653.48 97.74l30 30"/></g></svg>