<?xml version="1.0" encoding="UTF-8"?>
<svg xmlns="http://www.w3.org/2000/svg" version="1.1" viewBox="0 0 1028 228">
  <defs>
    <style>
      .cls-1 {
        fill: #ff4f00;
      }

      .cls-2 {
        fill: none;
        stroke: #b2b2b2;
        stroke-miterlimit: 10;
        stroke-width: 4px;
      }

      .cls-3 {
        fill: #8080f2;
      }

      .cls-4 {
        fill: #4b32c3;
      }

      .cls-5 {
        fill: #41b883;
      }

      .cls-6 {
        fill: #34495e;
      }
    </style>
  </defs>
  <!-- Generator: Adobe Illustrator 28.7.3, SVG Export Plug-In . SVG Version: 1.2.0 Build 164)  -->
  <g>
    <g id="Ebene_1">
      <path class="cls-3" d="M847.2,83.2l49.2-28.4c1.2-.7,2.7-.7,4,0l49.2,28.4c1.2.7,2,2,2,3.5v56.8c0,1.4-.8,2.7-2,3.5l-49.2,28.4c-1.2.7-2.7.7-4,0l-49.2-28.4c-1.2-.7-2-2-2-3.5v-56.8c0-1.4.8-2.7,2-3.5"/>
      <path class="cls-4" d="M1026.4,109.1l-58.8-102.3c-2.1-3.7-6.1-6.4-10.4-6.4h-117.6c-4.3,0-8.2,2.7-10.4,6.4l-58.8,102.1c-2.1,3.7-2.1,8.3,0,12.1l58.8,101.5c2.1,3.7,6.1,5.6,10.4,5.6h117.6c4.3,0,8.2-1.8,10.4-5.5l58.8-101.6c2.1-3.7,2.1-8,0-11.7M977.7,158.3c0,1.5-.9,2.9-2.2,3.7l-74.9,43.2c-1.3.8-2.9.8-4.2,0l-75-43.2c-1.3-.8-2.2-2.1-2.2-3.7v-86.4c0-1.5.9-2.9,2.2-3.7l74.9-43.2c1.3-.8,2.9-.8,4.2,0l75,43.2c1.3.8,2.2,2.1,2.2,3.7v86.4h0Z"/>
      <path class="cls-5" d="M541.8,1.8l-30.2,52.3L481.3,1.8h-100.7l130.9,226.7L642.4,1.8h-100.7Z"/>
      <path class="cls-6" d="M541.8,1.8l-30.2,52.3L481.3,1.8h-48.3l78.5,136L590.1,1.8s-48.3,0-48.3,0Z"/>
      <path class="cls-2" d="M314,130l30-30M314,100l30,30"/>
      <path class="cls-2" d="M653.5,127.7l30-30M653.5,97.7l30,30"/>
      <path class="cls-1" d="M103.3,225.5c6.9,1.3,14,2,21.2,2,62.7,0,113.5-50.8,113.5-113.5s-16.5-67.5-42.2-88.3c-20.9,10-57,30.3-60.6,52.9,0,0-3.5,14.8,16.3,23.4,19.4,8.4,34.6,21.1,34.6,38.3s-12,50.7-82.9,85.2M52.4,201.6c19-7.4,60.8-26.4,64.7-51,0,0,3.5-14.8-16.3-23.4-19.4-8.4-34.6-21.1-34.6-38.3S78.2,38,149.9,3.3c-8.1-1.9-16.6-2.8-25.3-2.8C61.9.5,11.1,51.3,11.1,114s16.1,66.8,41.4,87.6"/>
    </g>
  </g>
</svg>